# xmcd
#
# Track frame offsets:
#	150
#	8968
#	19598
#	30370
#	41264
#	53643
#	68621
#	81319
#	96348
#	107435
#	124031
#	137294
#	149873
#	164319
#	177319
#	189651
#	199666
#	210777
#	220469
#	232789
#	241990
#	251068
#	260173
#	269499
#	281285
#	291201
#	304702
#	315423
#
# Disc length: 4378 seconds
#
# Revision: 1
# Processed by: cddbd v1.5.1PL0 Copyright (c) Steve Scherf et al.
# Submitted via: audiograbber 1.83.01
#
DISCID=8711181c
DTITLE=Hank Snow - The Hank Snow Collection CD 1
DYEAR=1900
DGENRE=
TTITLE0=Learnin' a New Way Of Life
TTITLE1=Wild Flower
TTITLE2=Little Joe
TTITLE3=Put Your Arms Around Me
TTITLE4=The Color Song
TTITLE5=You Little Band Of Gold
TTITLE6=The Prisoners Dream
TTITLE7=The Answer To Little Blossom
TTITLE8=A Star Spangled Banner Waving
TTITLE9=Old River
TTITLE10=Mother, I Thank You
TTITLE11=The Prisoners Song
TTITLE12=Walking the Last Mile
TTITLE13=Rockin' Along
TTITLE14=Lonesome
TTITLE15=She Wears My Ring
TTITLE16=While Silver Sands
TTITLE17=Trouble In Mind
TTITLE18=Mary Ann Regrets
TTITLE19=Six Days On The Road
TTITLE20=Bumming Around
TTITLE21=From A Jack To A King
TTITLE22=Find Me A Blue Bird
TTITLE23=Sweet Lies
TTITLE24=In The Misty Moonlight
TTITLE25=Handcuffed To Love
TTITLE26=What More Can I Say
TTITLE27=I Wish My Heart Could Talk
EXTD=
EXTT0=
EXTT1=
EXTT2=
EXTT3=
EXTT4=
EXTT5=
EXTT6=
EXTT7=
EXTT8=
EXTT9=
EXTT10=
EXTT11=
EXTT12=
EXTT13=
EXTT14=
EXTT15=
EXTT16=
EXTT17=
EXTT18=
EXTT19=
EXTT20=
EXTT21=
EXTT22=
EXTT23=
EXTT24=
EXTT25=
EXTT26=
EXTT27=
PLAYORDER=
